<svg xmlns="http://www.w3.org/2000/svg" viewBox="0 0 111.06 13.91"><defs><style>.cls-1{fill:#004297;}</style></defs><title>자산 1</title><g id="레이어_2" data-name="레이어 2"><g id="Layer_1" data-name="Layer 1"><path class="cls-1" d="M4,13.91c-3.49,0-4.14-2.05-4-4.38H2.84c0,1.29.05,2.37,1.6,2.37a1.35,1.35,0,0,0,1.42-1.53C5.86,8,.19,7.8.19,3.79.19,1.68,1.19,0,4.63,0c2.74,0,4.1,1.23,3.91,4.05H5.8c0-1-.17-2-1.3-2A1.32,1.32,0,0,0,3,3.45C3,6,8.71,5.78,8.71,10,8.71,13.5,6.16,13.91,4,13.91Z"/><path class="cls-1" d="M12.39,13.69l.76-3H17l.75,3h3L17.05.22H13.34L9.61,13.69Zm4-5H13.71L15,2.82h0L16.4,8.64"/><polygon class="cls-1" points="21.88 13.69 21.88 0.22 26.41 0.22 28.52 9.38 28.56 9.38 30.8 0.22 35.18 0.22 35.18 13.69 32.44 13.69 32.44 3.3 32.4 3.3 29.81 13.69 27.12 13.69 24.66 3.3 24.62 3.3 24.62 13.69 21.88 13.69"/><path class="cls-1" d="M41,13.91c-3.49,0-4.14-2.05-4-4.38h2.81c0,1.29.06,2.37,1.61,2.37a1.34,1.34,0,0,0,1.41-1.53c0-2.42-5.67-2.57-5.67-6.58,0-2.11,1-3.79,4.44-3.79,2.74,0,4.11,1.23,3.92,4.05H42.83c0-1-.17-2-1.31-2a1.31,1.31,0,0,0-1.45,1.44c0,2.56,5.67,2.33,5.67,6.57C45.74,13.5,43.18,13.91,41,13.91Z"/><path class="cls-1" d="M56.76.22V9.77c0,2-1.14,4.14-4.57,4.14-3.09,0-4.59-1.6-4.59-4.14V.22h2.82V9.59c0,1.66.71,2.31,1.73,2.31,1.24,0,1.79-.82,1.79-2.31V.22Z"/><polygon class="cls-1" points="58.98 13.69 58.98 0.22 62.79 0.22 66.37 9.55 66.41 9.55 66.41 0.22 69.03 0.22 69.03 13.69 65.32 13.69 61.65 3.84 61.61 3.84 61.61 13.69 58.98 13.69"/><path class="cls-1" d="M77.47,4.36c0-1.25-.19-2.35-1.68-2.35C74,2,74,4.38,74,7c0,4.22.41,5,2,5a4.4,4.4,0,0,0,1.4-.27v-3H75.92V6.64h4.34v6.83a25.54,25.54,0,0,1-3.8.44c-4.74,0-5.28-1.95-5.28-7.07C71.18,3.45,71.35,0,76,0c2.76,0,4.47,1.55,4.3,4.36Z"/><path class="cls-1" d="M90.32,13.91c-3.49,0-4.14-2.05-4-4.38h2.81c0,1.29.06,2.37,1.61,2.37a1.34,1.34,0,0,0,1.41-1.53c0-2.42-5.67-2.57-5.67-6.58,0-2.11,1-3.79,4.44-3.79C93.68,0,95,1.23,94.85,4.05H92.11c0-1-.17-2-1.31-2a1.31,1.31,0,0,0-1.45,1.44C89.35,6,95,5.78,95,10,95,13.5,92.46,13.91,90.32,13.91Z"/><path class="cls-1" d="M97,13.69h4.58c4.82,0,4.5-4.74,4.5-6.81,0-4.19-.69-6.66-4.38-6.66H97Zm2.81-11.4h1.46c2,0,2,2.19,2,4.67,0,3.37-.34,4.66-2.06,4.66H99.81V2.29"/><rect class="cls-1" x="108.24" y="0.22" width="2.82" height="13.47"/></g></g></svg>